<?xml version="1.0" encoding="utf-8"?>
<!-- Generator: Adobe Illustrator 25.2.1, SVG Export Plug-In . SVG Version: 6.00 Build 0)  -->
<svg version="1.1" id="Layer_1" xmlns="http://www.w3.org/2000/svg" xmlns:xlink="http://www.w3.org/1999/xlink" x="0px" y="0px"
	 viewBox="0 0 1280 560" style="enable-background:new 0 0 1280 560;" xml:space="preserve">
<style type="text/css">
	.st0{opacity:0.1;}
	.st1{fill:#170C66;}
	.st2{fill:#E60B4C;}
	.st3{fill:#7A023D;}
	.st4{fill:#802160;}
	.st5{fill:#F12863;}
	.st6{fill:#FABAAC;}
	.st7{fill:#682698;}
	.st8{fill:#752BAB;}
	.st9{fill:#F180A3;}
	.st10{fill:#E6AFA3;}
	.st11{fill:#712994;}
	.st12{clip-path:url(#SVGID_2_);}
	.st13{fill:url(#SVGID_3_);}
	.st14{opacity:0.1;clip-path:url(#SVGID_5_);}
	.st15{fill:url(#SVGID_6_);}
	.st16{fill:url(#SVGID_7_);}
	.st17{fill:url(#SVGID_8_);}
	.st18{fill:url(#SVGID_9_);}
	.st19{clip-path:url(#SVGID_11_);}
	.st20{fill:url(#SVGID_12_);}
	.st21{opacity:0.1;clip-path:url(#SVGID_14_);}
	.st22{fill:url(#SVGID_15_);}
	.st23{fill:url(#SVGID_16_);}
	.st24{fill:url(#SVGID_17_);}
	.st25{fill:url(#SVGID_18_);}
	.st26{display:none;fill:url(#SVGID_19_);}
	.st27{clip-path:url(#SVGID_21_);}
	.st28{fill:url(#SVGID_22_);}
	.st29{opacity:0.1;clip-path:url(#SVGID_24_);}
	.st30{fill:url(#SVGID_25_);}
	.st31{fill:url(#SVGID_26_);}
	.st32{fill:url(#SVGID_27_);}
	.st33{fill:url(#SVGID_28_);}
	.st34{fill:#E40F4C;}
	.st35{fill:#E5ADA3;}
</style>
<g class="st0">
	<g>
		<path class="st1" d="M500.94,301.66h27.18v44.81h-27.18v46.31h-54.37v-46.31H337.82v-37.64l86.04-141.31h77.08V301.66z
			 M446.56,301.66v-88.73l-51.69,88.73H446.56z"/>
		<path class="st1" d="M542.76,279.85c0-17.92,2.34-34.21,7.02-48.85c4.68-14.64,11.25-27.13,19.72-37.49
			c8.46-10.35,18.52-18.37,30.18-24.05c11.65-5.68,24.54-8.52,38.69-8.52c13.94,0,26.78,2.84,38.54,8.52
			c11.75,5.68,21.81,13.7,30.17,24.05c8.37,10.36,14.89,22.85,19.57,37.49c4.68,14.64,7.02,30.92,7.02,48.85s-2.34,34.21-7.02,48.85
			c-4.68,14.64-11.2,27.19-19.57,37.64c-8.36,10.46-18.42,18.52-30.17,24.2c-11.76,5.68-24.6,8.52-38.54,8.52
			c-14.14,0-27.04-2.84-38.69-8.52c-11.65-5.68-21.71-13.74-30.18-24.2c-8.47-10.46-15.04-23-19.72-37.64
			C545.1,314.06,542.76,297.78,542.76,279.85z M600.72,279.85c0,9.96,0.9,19.02,2.69,27.19c1.8,8.17,4.33,15.24,7.62,21.21
			c3.29,5.97,7.22,10.61,11.8,13.89c4.58,3.29,9.75,4.93,15.53,4.93c5.57,0,10.7-1.64,15.39-4.93c4.68-3.29,8.61-7.92,11.8-13.89
			c3.18-5.98,5.67-13.04,7.47-21.21c1.79-8.16,2.69-17.23,2.69-27.19c0-9.76-0.9-18.77-2.69-27.04c-1.8-8.26-4.29-15.33-7.47-21.21
			c-3.19-5.87-7.12-10.46-11.8-13.74c-4.68-3.29-9.81-4.93-15.39-4.93c-5.78,0-10.95,1.64-15.53,4.93
			c-4.59,3.29-8.52,7.87-11.8,13.74c-3.28,5.88-5.82,12.95-7.62,21.21C601.61,261.08,600.72,270.1,600.72,279.85z"/>
		<path class="st1" d="M914.99,301.66h27.19v44.81h-27.19v46.31h-54.37v-46.31H751.88v-37.64l86.04-141.31h77.08V301.66z
			 M860.62,301.66v-88.73l-51.68,88.73H860.62z"/>
	</g>
</g>
<g>
	<g>
		<path class="st5" d="M611.72,269.47c2.36,11.62-3.23,24.49-3.54,36.18c-0.14,5.43-0.34,12.25,3.35,16.72
			c1.96,2.38,14.87,9.76,16.18,7.91c-7.64,10.75-27.24,15.53-39.54,13.51c-25.96-4.27-33.81-25.96-31.38-49.12
			c1.46-13.9,8.01-34.83,1.14-47.91c-5.92-11.28-21.34-22.44-31.94-28.63c7.85-11.62,24.47-15.14,38.18-12.21
			c12,2.57,22.39,10.29,29.93,20.04c1.08,1.39,2.11,2.83,3.07,4.31C604.83,242.01,608.92,255.72,611.72,269.47z"/>
		<path class="st2" d="M571.99,287.47c0.92,20.29,6.65,42.56,21.71,56.77c-1.95-0.02-3.82-0.16-5.54-0.45
			c-25.96-4.27-33.81-25.96-31.38-49.12c1.46-13.9,8.01-34.83,1.14-47.91c-5.92-11.28-21.34-22.44-31.94-28.63
			c7.85-11.62,24.47-15.14,38.18-12.21c8.99,1.92,17.07,6.74,23.73,13.13C576.25,239.3,570.91,263.61,571.99,287.47z"/>
		<path class="st5" d="M597.17,230.27c7.66,11.74,11.76,25.46,14.55,39.2c2.36,11.62-3.23,24.49-3.54,36.18
			c-0.14,5.43-0.34,12.25,3.35,16.72c1.96,2.38,14.87,9.76,16.18,7.91c-6.57,9.25-21.99,14.07-34.01,13.96
			c-15.07-14.21-20.79-36.48-21.71-56.77c-1.08-23.86,4.26-48.18,15.91-68.42c2.23,2.14,4.3,4.46,6.2,6.91
			C595.18,227.36,596.21,228.79,597.17,230.27z"/>
		<path class="st10" d="M564.17,205.92c12,2.57,22.39,10.29,29.93,20.04c0.28,2.15,0.4,4.32,0.38,6.49
			c-6.07-6.8-15.37-10.58-24.47-9.95c3.73,5.2,5.69,11.65,5.48,18.05c-3.83-5.67-10.89-8.99-17.69-8.31
			c3.68,6.41,4.59,14.34,2.5,21.42c-7.94-14.65-19.9-27.12-34.3-35.53C533.85,206.51,550.47,202.99,564.17,205.92z"/>
		<path class="st9" d="M605.46,288.34c-0.6,0.45-0.71,1.26-0.91,1.94c-0.22,0.76-0.43,1.53-0.54,2.31
			c-0.07,0.46,0.56,0.53,0.74,0.17c0.38-0.76,0.67-1.56,0.94-2.36c0.23-0.67,0.5-1.26,0.28-1.95
			C605.91,288.23,605.61,288.23,605.46,288.34z"/>
		<path class="st9" d="M605.76,276.03c-0.31,0.62-0.16,1.2-0.14,1.87c0.02,0.81-0.04,1.62-0.16,2.42c-0.09,0.59,0.87,0.81,1.02,0.23
			c0.21-0.84,0.35-1.67,0.37-2.54c0.02-0.75,0.03-1.53-0.52-2.09C606.13,275.74,605.88,275.8,605.76,276.03z"/>
		<path class="st9" d="M604.37,264.02c-0.16,1.01,0.12,2.08,0.26,3.09c0.15,1.15,0.34,2.29,0.56,3.43c0.11,0.56,0.89,0.4,0.86-0.15
			c-0.08-1.16-0.19-2.31-0.34-3.47c-0.13-1.01-0.13-2.1-0.55-3.04C604.99,263.48,604.43,263.63,604.37,264.02z"/>
		<path class="st9" d="M602.67,254.19c-0.32,0.42-0.06,0.86,0.09,1.3c0.23,0.66,0.47,1.32,0.73,1.98c0.2,0.52,1.11,0.24,0.94-0.3
			c-0.18-0.57-0.36-1.13-0.55-1.69c-0.17-0.5-0.25-1.26-0.83-1.41C602.9,254.04,602.77,254.07,602.67,254.19z"/>
		<path class="st9" d="M602.56,282.28c-0.54,0.38-0.42,1.2-0.48,1.8c-0.08,0.79-0.3,1.56-0.39,2.34c-0.04,0.36,0.46,0.55,0.66,0.24
			c0.45-0.66,0.66-1.44,0.83-2.21c0.15-0.67,0.42-1.71-0.22-2.19C602.84,282.16,602.68,282.19,602.56,282.28z"/>
		<path class="st9" d="M601.51,272.09c-0.2,0.41-0.1,0.95-0.14,1.4c-0.04,0.49-0.14,0.97-0.24,1.45c-0.1,0.53,0.67,0.63,0.86,0.2
			c0.23-0.49,0.35-1.02,0.44-1.55c0.08-0.48,0.18-1.11-0.08-1.54C602.15,271.7,601.69,271.72,601.51,272.09z"/>
		<path class="st9" d="M600.35,258.87c-0.16,0.49,0.04,0.93,0.14,1.42c0.14,0.68,0.2,1.4,0.2,2.09c0,0.55,0.81,0.65,0.87,0.08
			c0.07-0.71,0.07-1.4-0.02-2.11c-0.07-0.6-0.13-1.28-0.63-1.67C600.73,258.55,600.42,258.65,600.35,258.87z"/>
		<path class="st9" d="M599.84,279.27c0.05,0.27,0.13,0.51,0.12,0.79c-0.01,0.33-0.16,0.59-0.08,0.93c0.05,0.2,0.24,0.37,0.46,0.32
			c0.57-0.14,0.73-0.6,0.84-1.14c0.1-0.47-0.03-1.02-0.31-1.39C600.51,278.31,599.75,278.72,599.84,279.27z"/>
		<path class="st9" d="M598.73,266.4c-0.06,0.39,0.06,0.79,0.15,1.17c0.09,0.4,0.15,0.8,0.26,1.2c0.16,0.6,1,0.45,0.94-0.17
			c-0.03-0.41-0.11-0.81-0.17-1.21c-0.05-0.38-0.07-0.81-0.26-1.15C599.41,265.81,598.8,265.91,598.73,266.4z"/>
	</g>
	<g>
		<path class="st5" d="M645.34,369.42c13.08-0.08,26.15-3.02,37.97-8.6c17.83-8.43,32.1-33.04,23.36-52.84
			c-5.82-13.2-19.07-13.8-33.97-10.75c-14.59,2.98-27.45,9.33-41.35,14.13c-11.8,4.08-20.16,12.07-22.77,25.09
			c-3.94,19.68,5.2,29.35,23.16,32.02C636.25,369.14,640.79,369.45,645.34,369.42z"/>
		<path class="st4" d="M637.28,379.26c-0.32-7.87-1.23-15.71-2.27-23.51c-0.12-0.93-0.29-2.32-0.51-3.99
			c-0.12,0.07-0.25,0.13-0.38,0.18c-4.55,1.93-7.41-3.52-8.42-8.09c-1.73,2.72-1.66,8.88-5.97,5.88c0.67,4.51,1.35,9.01,2.03,13.51
			c1.3,8.52,2.6,17.05,3.92,25.57c0,0,4.6,15.81,9.93,7.14C638.35,391.47,637.48,384.21,637.28,379.26z"/>
		<path class="st2" d="M709.12,317.24c1.88,17.63-10.68,36.43-25.81,43.58c-11.82,5.59-24.89,8.52-37.97,8.6
			c-4.55,0.03-9.09-0.29-13.59-0.95c-17.96-2.67-27.1-12.33-23.16-32.02c0.99-4.94,2.81-9.16,5.34-12.72
			c6.77,3.41,14.07,5.92,21.98,7.33C661.71,335.95,687.5,331.16,709.12,317.24z"/>
		<g>
			<path class="st5" d="M668.13,345.01c0.92,4.59,3.67,10.09,8.26,8.26c0.14-0.05,0.26-0.11,0.39-0.17
				c-1.06-9.14-3.87-26.53-13.45-21c-4.49,2.59-2.36,10.19-1.83,14.39c0.18,1.43,0.37,2.85,0.56,4.28
				C666.29,353.86,666.34,347.69,668.13,345.01z"/>
			<path class="st4" d="M679.01,380.65c-0.17-7.87-0.91-15.73-1.81-23.55c-0.11-0.93-0.24-2.33-0.43-4
				c-0.12,0.06-0.25,0.12-0.39,0.17c-4.59,1.83-7.34-3.67-8.26-8.26c-1.79,2.68-1.84,8.85-6.09,5.76c0.58,4.52,1.17,9.04,1.76,13.55
				c1.13,8.55,2.26,17.1,3.41,25.64c0,0,4.28,15.9,9.79,7.34C679.83,392.89,679.12,385.6,679.01,380.65z"/>
		</g>
		<g>
			<path class="st5" d="M694.72,343.74c0.3,4.67,2.29,10.49,7.08,9.28c0.14-0.03,0.27-0.07,0.41-0.12
				c0.17-9.2-0.3-26.81-10.53-22.61c-4.8,1.97-3.7,9.78-3.74,14.02c-0.01,1.44-0.01,2.88-0.02,4.32
				C691.72,352.26,692.59,346.16,694.72,343.74z"/>
			<path class="st4" d="M700.75,380.51c0.88-7.82,1.19-15.71,1.35-23.58c0.02-0.93,0.07-2.34,0.1-4.03
				c-0.13,0.05-0.26,0.09-0.41,0.12c-4.79,1.21-6.78-4.62-7.08-9.28c-2.13,2.42-3,8.52-6.8,4.89c-0.03,4.55-0.05,9.11-0.06,13.66
				c-0.02,8.62-0.04,17.25-0.04,25.87c0,0,2.12,16.33,8.72,8.58C699.93,392.75,700.19,385.44,700.75,380.51z"/>
		</g>
		<path class="st5" d="M631.35,311.37c13.9-4.8,26.76-11.15,41.35-14.13c14.9-3.05,28.15-2.45,33.97,10.75
			c1.32,3,2.11,6.11,2.45,9.26c-21.62,13.92-47.42,18.71-73.22,13.82c-7.91-1.41-15.21-3.93-21.98-7.33
			C618.04,317.93,624.03,313.89,631.35,311.37z"/>
		<path class="st10" d="M680.12,306.11c-4.37,4.24-8.41,9.32-11.6,13.68c14.32,0.73,28.47-2.63,41.74-8.19
			c-0.41-1.75-0.99-3.46-1.76-5.09C699.21,308.36,689.39,308.05,680.12,306.11z"/>
		<path class="st7" d="M708.5,306.52c-0.47-0.99-1.01-1.95-1.61-2.87c-7.52-11.39-17.85-6.2-26.77,2.46
			C689.39,308.05,699.21,308.36,708.5,306.52z"/>
		<path class="st6" d="M668.52,319.79c-1.91,2.61-3.53,4.97-4.73,6.73c4.68-2,9.37-4.01,14.05-6.01
			c-4.82,8.16-7.41,17.62-7.41,27.09c13.03-2.39,25.19-9.24,34-19.13c0.13,2.05,0.26,4.11,0.39,6.16
			c5.39-6.19,7.28-15.07,5.44-23.03C696.99,317.17,682.84,320.53,668.52,319.79z"/>
		<path class="st5" d="M710.91,258.8c0.9,0.85,1.86,1.65,2.84,2.39c3.23,2.43,6.86,4.3,10.73,5.45c1.53,0.47,3.09,0.82,4.69,1.06
			c9.3-9.28,12.06-24.49,6.61-36.45C722.41,234.11,712.08,245.18,710.91,258.8z"/>
		<path class="st4" d="M713.75,261.18c3.23,2.43,6.86,4.3,10.73,5.45c0.24-0.18,0.47-0.4,0.69-0.65c5.25-6,7.23-15.01,5.02-22.85
			C722.39,246.26,716.43,252.88,713.75,261.18z"/>
		<path class="st5" d="M670.33,258.8c-0.9,0.85-1.86,1.65-2.84,2.39c-3.23,2.43-6.86,4.3-10.73,5.45c-1.53,0.47-3.09,0.82-4.69,1.06
			c-9.3-9.28-12.07-24.49-6.61-36.45C658.83,234.11,669.15,245.18,670.33,258.8z"/>
		<path class="st4" d="M667.49,261.18c-3.23,2.43-6.86,4.3-10.73,5.45c-0.24-0.18-0.47-0.4-0.69-0.65c-5.25-6-7.23-15.01-5.02-22.85
			C658.85,246.26,664.8,252.88,667.49,261.18z"/>
		<path class="st5" d="M634.27,294.57c35.15,17.98,78.78,18.32,114.2,0.89c-7.31-25.33-29.78-48.72-56.14-48.61
			C665.97,246.96,641.37,269.19,634.27,294.57z"/>
		<path class="st6" d="M634.27,294.57c35.15,17.98,78.78,18.32,114.2,0.89c0,0-39.52-50.31-54.63,7.87l-6-0.83
			C687.84,302.5,679.98,238.66,634.27,294.57z"/>
		<path class="st7" d="M682.91,303.15c1.29-1.99,6.71-1.59,8.45-1.5c1.63,0.08,6.1,0.24,7.15,1.7c2.48,3.47-4.68,7.3-7.21,7.25
			c-1.96-0.04-3.84-0.9-5.34-2.12c-0.98-0.8-3.55-3.28-3.28-4.72C682.71,303.53,682.8,303.33,682.91,303.15z"/>
		<path class="st8" d="M687.33,303.95c0.66-0.95,1.66-0.9,2.74-0.98c1.14-0.08,2.6-0.17,3.56,0.56c0.44,0.34,0.66,1.19,0,1.47
			c-0.91,0.39-1.8,0.29-2.77,0.3c-1.05,0.02-2.26,0.54-3.19-0.08C687.27,304.96,687.03,304.39,687.33,303.95z"/>
		<path class="st4" d="M710.79,285.5c1.04-1.37,2.69-1.37,3.73,0c0.74,0.98,0.6,2.78,0.57,3.98c-0.02,0.8-0.44,1.74-1.2,2.1
			c-0.91,0.42-1.55,0.42-2.46,0c-0.77-0.36-1.19-1.3-1.2-2.1C710.2,288.28,710.05,286.48,710.79,285.5z"/>
		<path class="st4" d="M668.47,285.5c1.04-1.37,2.69-1.37,3.73,0c0.74,0.98,0.6,2.78,0.57,3.98c-0.02,0.8-0.44,1.74-1.2,2.1
			c-0.91,0.42-1.55,0.42-2.46,0c-0.77-0.36-1.19-1.3-1.2-2.1C667.87,288.28,667.72,286.48,668.47,285.5z"/>
		<path class="st9" d="M694.21,274.6c0.09-0.66,0.17-1.33,0.3-1.99c0.11-0.52,0.95-0.4,0.92,0.12c-0.04,0.71-0.14,1.42-0.23,2.13
			c-0.07,0.54-0.04,1.16-0.48,1.54c-0.15,0.13-0.34,0.1-0.46-0.06C693.91,275.84,694.13,275.18,694.21,274.6z"/>
		<path class="st9" d="M686.44,274.74c0-0.78,0.01-1.57,0.1-2.35c0.06-0.51,0.73-0.51,0.79,0c0.08,0.68,0.09,1.37,0.1,2.06
			c0.01,0.65,0.13,1.36-0.19,1.94c-0.12,0.23-0.48,0.23-0.61,0C686.35,275.87,686.44,275.32,686.44,274.74z"/>
		<path class="st9" d="M691.65,283.01c0-0.64,0.01-1.29,0.09-1.93c0.06-0.52,0.75-0.52,0.81,0c0.08,0.64,0.08,1.28,0.09,1.93
			c0,0.49,0.14,1.08-0.28,1.41c-0.14,0.11-0.28,0.11-0.42,0C691.51,284.08,691.65,283.5,691.65,283.01z"/>
		<path class="st9" d="M702.1,272.46c0.13-0.64,0.27-1.28,0.44-1.92c0.13-0.46,0.91-0.38,0.85,0.11c-0.07,0.61-0.17,1.22-0.29,1.83
			c-0.11,0.56-0.12,1.14-0.49,1.59c-0.19,0.24-0.57,0.08-0.64-0.17C701.83,273.42,702,272.95,702.1,272.46z"/>
		<path class="st9" d="M698.37,266.59c0.11-0.72,0.28-1.44,0.64-2.08c0.21-0.38,0.7-0.1,0.65,0.27c-0.09,0.61-0.24,1.21-0.35,1.82
			c-0.09,0.51,0.01,1.08-0.37,1.46c-0.11,0.11-0.31,0.12-0.41,0C698.15,267.65,698.29,267.11,698.37,266.59z"/>
		<path class="st9" d="M697.34,282.97c0.23-0.49,0.49-0.97,0.81-1.41c0.27-0.37,0.93-0.17,0.78,0.33c-0.14,0.47-0.33,0.91-0.55,1.35
			c-0.16,0.32-0.41,0.84-0.87,0.68C697.09,283.77,697.2,283.27,697.34,282.97z"/>
		<path class="st9" d="M684.61,281.15c0.34,0.61,0.68,1.44,0.71,2.14c0.02,0.45-0.6,0.57-0.82,0.22c-0.37-0.6-0.55-1.48-0.63-2.17
			C683.84,280.95,684.43,280.82,684.61,281.15z"/>
		<path class="st9" d="M690.7,264.21c0.15-0.23,0.52-0.21,0.59,0.08c0.09,0.35,0.06,0.71,0.05,1.07c-0.01,0.46,0.02,0.93,0.03,1.39
			c0.01,0.67-0.92,0.62-1,0C690.27,265.98,690.26,264.87,690.7,264.21z"/>
		<path class="st9" d="M681.68,264.75c0.05-0.36,0.67-0.36,0.72,0c0.09,0.59,0.17,1.17,0.31,1.75c0.12,0.5,0.34,0.94,0.18,1.45
			c-0.04,0.14-0.19,0.19-0.31,0.13C681.56,267.6,681.54,265.7,681.68,264.75z"/>
		<path class="st9" d="M696.85,260.64c0.07-0.49,0.14-1,0.29-1.47c0.14-0.46,0.86-0.38,0.85,0.12c0,0.54-0.1,1.09-0.19,1.62
			c-0.04,0.27-0.37,0.41-0.61,0.35C696.91,261.17,696.81,260.9,696.85,260.64z"/>
		<path class="st9" d="M704.97,262.03c0.33-0.34,0.83,0.09,0.63,0.49c-0.33,0.68-0.61,1.34-0.75,2.08
			c-0.12,0.64-1.04,0.35-0.96-0.26C704.02,263.49,704.37,262.66,704.97,262.03z"/>
		<path class="st9" d="M684.4,261.65c0.1-0.64,0.27-1.26,0.42-1.88c0.11-0.48,0.91-0.38,0.87,0.12c-0.05,0.55-0.08,1.09-0.16,1.63
			c-0.07,0.54-0.04,1.16-0.54,1.47c-0.14,0.09-0.37,0.07-0.47-0.06C684.18,262.51,684.31,262.14,684.4,261.65z"/>
		<path class="st4" d="M614.87,382.4c2.51-7.46,4.47-15.11,6.28-22.77c0.21-0.91,0.56-2.27,0.95-3.91
			c-0.14,0.02-0.28,0.03-0.42,0.03c-4.94,0.17-5.66-5.94-4.97-10.57c-2.59,1.92-4.72,7.7-7.68,3.36c-0.98,4.45-1.96,8.9-2.93,13.35
			c-1.84,8.42-3.66,16.85-5.48,25.28c0,0-1.36,16.41,6.72,10.22C611.5,394.19,613.3,387.09,614.87,382.4z"/>
	</g>
</g>
</svg>
