<?xml version="1.0" encoding="utf-8"?>
<!-- Generator: Adobe Illustrator 25.2.1, SVG Export Plug-In . SVG Version: 6.00 Build 0)  -->
<svg version="1.1" id="Layer_1" xmlns="http://www.w3.org/2000/svg" xmlns:xlink="http://www.w3.org/1999/xlink" x="0px" y="0px"
	 viewBox="0 0 1280 560" style="enable-background:new 0 0 1280 560;" xml:space="preserve">
<style type="text/css">
	.st0{opacity:0.1;}
	.st1{fill:#170C66;}
	.st2{fill:#E60B4C;}
	.st3{fill:#7A023D;}
	.st4{fill:#802160;}
	.st5{fill:#F12863;}
	.st6{fill:#FABAAC;}
	.st7{fill:#682698;}
	.st8{fill:#752BAB;}
	.st9{fill:#F180A3;}
	.st10{fill:#E6AFA3;}
	.st11{fill:#712994;}
	.st12{clip-path:url(#SVGID_2_);}
	.st13{fill:url(#SVGID_3_);}
	.st14{opacity:0.1;clip-path:url(#SVGID_5_);}
	.st15{fill:url(#SVGID_6_);}
	.st16{fill:url(#SVGID_7_);}
	.st17{fill:url(#SVGID_8_);}
	.st18{fill:url(#SVGID_9_);}
	.st19{clip-path:url(#SVGID_11_);}
	.st20{fill:url(#SVGID_12_);}
	.st21{opacity:0.1;clip-path:url(#SVGID_14_);}
	.st22{fill:url(#SVGID_15_);}
	.st23{fill:url(#SVGID_16_);}
	.st24{fill:url(#SVGID_17_);}
	.st25{fill:url(#SVGID_18_);}
	.st26{display:none;fill:url(#SVGID_19_);}
	.st27{clip-path:url(#SVGID_21_);}
	.st28{fill:url(#SVGID_22_);}
	.st29{opacity:0.1;clip-path:url(#SVGID_24_);}
	.st30{fill:url(#SVGID_25_);}
	.st31{fill:url(#SVGID_26_);}
	.st32{fill:url(#SVGID_27_);}
	.st33{fill:url(#SVGID_28_);}
	.st34{fill:#E40F4C;}
	.st35{fill:#E5ADA3;}
</style>
<g class="st0">
	<path class="st1" d="M501.62,218.8h-75.88l-3.78,24.13c3.49-0.39,6.69-0.73,9.59-1.02c2.91-0.29,5.91-0.44,9.01-0.44
		c11.05,0,21.32,1.94,30.82,5.81c9.49,3.88,17.63,9.21,24.42,15.99c6.78,6.79,12.11,14.93,15.99,24.42
		c3.87,9.5,5.81,19.87,5.81,31.11c0,11.82-2.18,22.49-6.54,31.98c-4.36,9.5-10.51,17.59-18.46,24.27
		c-7.95,6.69-17.64,11.83-29.07,15.41c-11.44,3.58-24.13,5.38-38.08,5.38c-13.18,0-25.73-1.6-37.65-4.8
		c-11.92-3.2-23.11-8.09-33.58-14.68l8.43-53.49c9.69,8.34,19.57,14.68,29.65,19.04c10.07,4.36,19.67,6.54,28.78,6.54
		c11.63,0,20.83-3.15,27.62-9.45c6.78-6.29,10.18-14.1,10.18-23.4c0-10.85-4.56-19.62-13.66-26.31
		c-9.11-6.69-21.03-10.03-35.76-10.03c-6.59,0-13.37,0.73-20.35,2.18c-6.98,1.45-13.86,3.73-20.64,6.83l18.31-117.74h114.83V218.8z"
		/>
	<path class="st1" d="M542.32,279.86c0-17.44,2.28-33.29,6.83-47.53c4.55-14.25,10.95-26.4,19.19-36.48
		c8.24-10.07,18.02-17.88,29.36-23.4c11.34-5.52,23.88-8.29,37.65-8.29c13.56,0,26.06,2.76,37.5,8.29
		c11.43,5.52,21.22,13.33,29.36,23.4c8.14,10.08,14.49,22.24,19.04,36.48c4.55,14.24,6.83,30.09,6.83,47.53
		c0,17.44-2.28,33.29-6.83,47.53c-4.55,14.24-10.9,26.45-19.04,36.63c-8.14,10.18-17.93,18.02-29.36,23.55
		c-11.44,5.52-23.94,8.29-37.5,8.29c-13.76,0-26.31-2.76-37.65-8.29c-11.34-5.52-21.13-13.37-29.36-23.55
		c-8.24-10.17-14.64-22.38-19.19-36.63C544.59,313.14,542.32,297.3,542.32,279.86z M598.72,279.86c0,9.69,0.87,18.51,2.62,26.45
		c1.75,7.95,4.22,14.83,7.41,20.64c3.2,5.81,7.02,10.32,11.48,13.52c4.46,3.2,9.49,4.8,15.12,4.8c5.42,0,10.42-1.6,14.97-4.8
		c4.55-3.2,8.38-7.7,11.48-13.52c3.1-5.82,5.52-12.69,7.27-20.64c1.74-7.94,2.62-16.76,2.62-26.45c0-9.49-0.87-18.27-2.62-26.31
		c-1.75-8.04-4.17-14.92-7.27-20.64c-3.1-5.71-6.93-10.18-11.48-13.37c-4.55-3.2-9.55-4.8-14.97-4.8c-5.62,0-10.66,1.6-15.12,4.8
		c-4.46,3.2-8.29,7.66-11.48,13.37c-3.2,5.72-5.67,12.6-7.41,20.64C599.59,261.59,598.72,270.36,598.72,279.86z"/>
	<path class="st1" d="M740,279.86c0-17.44,2.28-33.29,6.83-47.53c4.55-14.25,10.95-26.4,19.19-36.48
		c8.24-10.07,18.02-17.88,29.36-23.4c11.34-5.52,23.88-8.29,37.65-8.29c13.56,0,26.06,2.76,37.5,8.29
		c11.43,5.52,21.22,13.33,29.36,23.4c8.14,10.08,14.49,22.24,19.04,36.48c4.55,14.24,6.83,30.09,6.83,47.53
		c0,17.44-2.28,33.29-6.83,47.53c-4.55,14.24-10.9,26.45-19.04,36.63c-8.14,10.18-17.93,18.02-29.36,23.55
		c-11.44,5.52-23.94,8.29-37.5,8.29c-13.76,0-26.31-2.76-37.65-8.29c-11.34-5.52-21.13-13.37-29.36-23.55
		c-8.24-10.17-14.63-22.38-19.19-36.63C742.28,313.14,740,297.3,740,279.86z M796.4,279.86c0,9.69,0.87,18.51,2.62,26.45
		c1.75,7.95,4.22,14.83,7.41,20.64c3.2,5.81,7.02,10.32,11.49,13.52c4.46,3.2,9.49,4.8,15.12,4.8c5.42,0,10.42-1.6,14.97-4.8
		c4.55-3.2,8.38-7.7,11.48-13.52c3.1-5.82,5.52-12.69,7.27-20.64c1.74-7.94,2.62-16.76,2.62-26.45c0-9.49-0.87-18.27-2.62-26.31
		c-1.75-8.04-4.17-14.92-7.27-20.64c-3.1-5.71-6.93-10.18-11.48-13.37c-4.55-3.2-9.55-4.8-14.97-4.8c-5.62,0-10.66,1.6-15.12,4.8
		c-4.46,3.2-8.29,7.66-11.49,13.37c-3.2,5.72-5.67,12.6-7.41,20.64C797.28,261.59,796.4,270.36,796.4,279.86z"/>
</g>
<g>
	<g>
		<path class="st34" d="M618.38,322.93c2.94,9.38-0.56,20.47,0.19,30.14c0.35,4.49,0.77,10.13,4.2,13.5
			c1.82,1.79,13.1,6.77,14.02,5.13c-5.37,9.52-21.13,15.15-31.45,14.54c-21.77-1.29-30.11-18.5-30.1-37.81
			c0.01-11.59,3.61-29.41-3.18-39.6c-5.85-8.79-19.52-16.67-28.79-20.86c5.48-10.26,18.88-14.59,30.43-13.35
			c10.12,1.08,19.34,6.56,26.4,13.95c1.01,1.06,1.98,2.15,2.9,3.29C610.33,300.88,614.89,311.83,618.38,322.93z"/>
		<path class="st2" d="M587.17,341.19c2.5,16.65,9.14,34.52,22.78,44.94c-1.61,0.15-3.16,0.19-4.6,0.11
			c-21.77-1.29-30.11-18.5-30.1-37.81c0.01-11.59,3.61-29.41-3.18-39.6c-5.85-8.79-19.52-16.67-28.79-20.86
			c5.48-10.26,18.88-14.59,30.43-13.35c7.58,0.81,14.65,4.09,20.7,8.79C586.54,301.1,584.22,321.6,587.17,341.19z"/>
		<path class="st5" d="M603.01,291.86c7.33,9.02,11.88,19.98,15.37,31.07c2.94,9.38-0.56,20.47,0.19,30.14
			c0.35,4.49,0.77,10.13,4.2,13.5c1.82,1.79,13.1,6.77,14.02,5.13c-4.62,8.19-16.93,13.5-26.84,14.43
			c-13.64-10.42-20.28-28.29-22.78-44.94c-2.94-19.58-0.63-40.09,7.24-57.79c2.02,1.57,3.93,3.31,5.7,5.17
			C601.12,289.62,602.09,290.72,603.01,291.86z"/>
		<path class="st35" d="M573.71,274.62c10.12,1.08,19.34,6.56,26.4,13.95c0.41,1.75,0.7,3.53,0.87,5.32
			c-5.59-5.09-13.58-7.41-21.03-6.1c3.53,3.97,5.69,9.12,6.07,14.41c-3.64-4.35-9.75-6.47-15.3-5.33c3.59,4.97,5.02,11.43,3.9,17.45
			c-7.81-11.4-18.74-20.65-31.34-26.35C548.76,277.71,562.16,273.38,573.71,274.62z"/>
		<path class="st9" d="M614.84,339.03c-0.46,0.42-0.47,1.1-0.58,1.68c-0.12,0.64-0.22,1.3-0.24,1.95c-0.01,0.39,0.5,0.39,0.62,0.08
			c0.25-0.66,0.42-1.34,0.57-2.03c0.13-0.57,0.31-1.08,0.06-1.64C615.2,338.9,614.96,338.92,614.84,339.03z"/>
		<path class="st9" d="M614.03,328.85c-0.2,0.54-0.03,1,0.04,1.56c0.09,0.67,0.11,1.34,0.07,2.01c-0.02,0.49,0.79,0.6,0.86,0.1
			c0.1-0.71,0.14-1.41,0.09-2.13c-0.05-0.62-0.1-1.26-0.61-1.68C614.31,328.58,614.1,328.65,614.03,328.85z"/>
		<path class="st9" d="M611.85,319.06c-0.05,0.85,0.28,1.7,0.48,2.52c0.23,0.93,0.47,1.86,0.76,2.78c0.14,0.45,0.77,0.25,0.69-0.2
			c-0.16-0.95-0.36-1.89-0.58-2.83c-0.19-0.83-0.29-1.72-0.71-2.46C612.31,318.57,611.87,318.74,611.85,319.06z"/>
		<path class="st9" d="M609.61,311.11c-0.23,0.37,0.02,0.71,0.19,1.06c0.25,0.53,0.5,1.05,0.77,1.57c0.21,0.41,0.93,0.1,0.75-0.33
			c-0.2-0.45-0.39-0.9-0.6-1.35c-0.18-0.39-0.31-1.02-0.81-1.09C609.78,310.96,609.68,311,609.61,311.11z"/>
		<path class="st9" d="M611.93,334.28c-0.41,0.36-0.24,1.03-0.24,1.52c0,0.66-0.11,1.31-0.12,1.97c0,0.3,0.42,0.41,0.57,0.14
			c0.31-0.59,0.42-1.24,0.5-1.9c0.07-0.57,0.19-1.45-0.37-1.78C612.15,334.16,612.02,334.19,611.93,334.28z"/>
		<path class="st9" d="M610.18,325.97c-0.13,0.35,0,0.8,0.01,1.17c0.01,0.41-0.04,0.81-0.07,1.22c-0.04,0.44,0.6,0.46,0.73,0.09
			c0.14-0.42,0.2-0.87,0.23-1.31c0.02-0.4,0.05-0.93-0.2-1.27C610.68,325.59,610.3,325.64,610.18,325.97z"/>
		<path class="st9" d="M608.09,315.17c-0.09,0.42,0.11,0.76,0.24,1.16c0.17,0.55,0.29,1.14,0.35,1.71c0.05,0.45,0.73,0.47,0.72-0.01
			c0-0.59-0.07-1.16-0.2-1.74c-0.11-0.49-0.22-1.04-0.66-1.32C608.38,314.87,608.13,314.98,608.09,315.17z"/>
		<path class="st9" d="M609.43,332.03c0.06,0.22,0.15,0.41,0.17,0.64c0.02,0.28-0.08,0.5,0.01,0.78c0.06,0.16,0.23,0.29,0.4,0.22
			c0.46-0.17,0.55-0.56,0.59-1.01c0.04-0.39-0.11-0.84-0.37-1.12C609.9,331.18,609.3,331.58,609.43,332.03z"/>
		<path class="st9" d="M607.4,321.51c-0.02,0.32,0.12,0.65,0.22,0.95c0.11,0.32,0.19,0.65,0.32,0.97c0.19,0.48,0.86,0.29,0.76-0.22
			c-0.06-0.33-0.16-0.66-0.24-0.99c-0.08-0.31-0.13-0.66-0.32-0.93C607.92,320.96,607.42,321.11,607.4,321.51z"/>
	</g>
	<g>
		<path class="st34" d="M691.65,376.61c8.13-9.79,7.71-25.25,4.94-38.38c-2.74-12.97-6.6-26.04-12.58-37.56
			c-5.8-11.18-12.4-17.96-23.71-20.11c-14.18-2.7-22.18,7.87-28.13,21.87c-5.82,13.71-7.89,27.9-11.82,42.07
			c-3.34,12.03-1.5,23.45,7.74,32.98C642.53,392.39,677.93,393.14,691.65,376.61z"/>
		<path class="st4" d="M693.3,392.69c-7.77-1.25-15.46-3.08-23.08-5.04c-0.9-0.23-2.27-0.56-3.91-0.98
			c0.08-0.11,0.16-0.23,0.22-0.36c2.45-4.29-2.62-7.78-7.04-9.32c2.9-1.4,9.02-0.59,6.54-5.23c4.39,1.2,8.79,2.4,13.18,3.62
			c8.31,2.3,16.62,4.6,24.93,6.92c0,0,15.16,6.44,5.92,10.71C705.3,395.2,698.19,393.48,693.3,392.69z"/>
		<path class="st4" d="M622.47,393.92c7.76-1.32,15.43-3.22,23.03-5.25c0.9-0.24,2.27-0.58,3.9-1.02c-0.08-0.11-0.16-0.23-0.23-0.36
			c-2.49-4.27,2.55-7.8,6.95-9.38c-2.92-1.37-9.02-0.51-6.59-5.17c-4.38,1.24-8.77,2.48-13.14,3.73
			c-8.29,2.37-16.58,4.75-24.86,7.14c0,0-15.1,6.57-5.82,10.76C610.49,396.54,617.58,394.75,622.47,393.92z"/>
		<path class="st2" d="M695.49,333.28c0.39,1.65,0.76,3.31,1.1,4.96c1.82,8.64,6.14,16.16,5.89,25.37
			c-0.19,7.27-3.07,14.76-8.89,19.11c-4.91,3.67-11.1,4.6-17.07,4.82c-15.83,0.58-38.1,6.1-52-4.6c-5.12-3.94-7.45-10.67-7.57-17.13
			c-0.18-9.57,3.12-19.72,5.37-28.96c9.74,4.66,20.31,7.81,31.37,9.34C668.94,348.56,684.61,343.55,695.49,333.28z"/>
		<path class="st5" d="M660.31,280.57c11.31,2.15,17.92,8.93,23.71,20.11c5.21,10.05,8.82,21.28,11.47,32.6
			c-10.88,10.27-26.55,15.29-41.79,12.92c-11.06-1.53-21.63-4.68-31.37-9.34c2.82-11.61,5.07-23.17,9.85-34.41
			C638.12,288.44,646.13,277.87,660.31,280.57z"/>
		<path class="st6" d="M644.67,304.07c13.23,2.69,26.63,2.6,38.88-2.78c4.21,8.11,2.64,17.85-1.02,27.7
			c-1.98-3.27-3.96-6.55-5.93-9.82c-2.23,12.19-9.12,23.46-18.95,31c-2.38-9.35-4.76-18.7-7.14-28.04
			c-2.42,2.32-4.83,4.64-7.25,6.96c0.09-0.08-0.77-6.8-1.24-11.98c-0.24-2.65-0.38-4.9-0.24-5.64
			C642.37,308.27,643.33,306.13,644.67,304.07z"/>
		<path class="st35" d="M644.67,304.07c0.92-1.43,2.03-2.82,3.32-4.5c8-10.37,17.1-15.16,28.74-6.22c3.11,2.39,5.33,5.06,6.82,7.94
			C671.29,306.67,657.9,306.76,644.67,304.07z"/>
		<path class="st5" d="M678.77,246.43c0.91,0.84,1.86,1.64,2.85,2.37c3.24,2.42,6.88,4.27,10.75,5.4c1.53,0.46,3.1,0.81,4.69,1.04
			c9.26-9.32,11.96-24.55,6.45-36.47C690.17,221.69,679.89,232.8,678.77,246.43z"/>
		<path class="st4" d="M681.63,248.8c3.24,2.42,6.88,4.27,10.75,5.4c0.24-0.18,0.47-0.4,0.69-0.65c5.22-6.02,7.17-15.05,4.92-22.87
			C690.2,233.84,684.28,240.49,681.63,248.8z"/>
		<path class="st5" d="M638.2,246.61c-0.9,0.85-1.85,1.66-2.83,2.4c-3.22,2.45-6.84,4.33-10.71,5.5c-1.53,0.47-3.09,0.83-4.68,1.08
			c-9.35-9.24-12.17-24.44-6.78-36.42C626.59,221.97,636.96,232.99,638.2,246.61z"/>
		<path class="st4" d="M635.36,249.01c-3.22,2.45-6.84,4.33-10.71,5.5c-0.24-0.18-0.47-0.39-0.69-0.64
			c-5.28-5.98-7.3-14.98-5.12-22.83C626.66,234.12,632.64,240.71,635.36,249.01z"/>
		<path class="st5" d="M602.3,282.54c35.23,17.83,78.86,17.97,114.2,0.38c-7.42-25.3-29.99-48.59-56.35-48.36
			C633.79,234.79,609.28,257.12,602.3,282.54z"/>
		<path class="st6" d="M602.3,282.54c35.23,17.83,78.86,17.97,114.2,0.38c0,0-30.57-50.18-45.42,8.07l-6.01-0.81
			C665.07,290.19,647.75,226.43,602.3,282.54z"/>
		<path class="st7" d="M660.15,290.86c1.28-2,6.7-1.61,8.44-1.53c1.63,0.08,6.1,0.21,7.15,1.67c2.5,3.46-4.65,7.32-7.18,7.28
			c-1.96-0.03-3.85-0.88-5.35-2.1c-0.99-0.8-3.57-3.27-3.3-4.71C659.96,291.24,660.04,291.04,660.15,290.86z"/>
		<path class="st8" d="M664.57,291.65c0.66-0.95,1.66-0.91,2.74-1c1.14-0.09,2.6-0.18,3.56,0.54c0.44,0.33,0.67,1.19,0.01,1.47
			c-0.91,0.39-1.8,0.3-2.77,0.32c-1.05,0.02-2.26,0.55-3.19-0.06C664.51,292.65,664.27,292.08,664.57,291.65z"/>
		<path class="st4" d="M683.37,273.11c1.04-1.38,2.68-1.39,3.73-0.02c0.75,0.97,0.61,2.78,0.59,3.98c-0.02,0.8-0.43,1.75-1.2,2.11
			c-0.91,0.42-1.54,0.43-2.46,0.01c-0.77-0.35-1.19-1.3-1.21-2.09C682.78,275.89,682.63,274.09,683.37,273.11z"/>
		<path class="st4" d="M641.04,273.3c1.04-1.38,2.68-1.39,3.73-0.02c0.75,0.97,0.61,2.78,0.59,3.98c-0.02,0.8-0.43,1.75-1.2,2.11
			c-0.91,0.42-1.54,0.43-2.46,0.01c-0.77-0.35-1.19-1.3-1.21-2.09C640.46,276.08,640.3,274.28,641.04,273.3z"/>
		<g>
			<path class="st9" d="M662.15,262.31c0.08-0.66,0.16-1.33,0.3-1.99c0.1-0.52,0.94-0.4,0.92,0.12c-0.03,0.71-0.13,1.43-0.22,2.13
				c-0.07,0.54-0.03,1.16-0.47,1.54c-0.15,0.13-0.34,0.1-0.46-0.06C661.85,263.55,662.07,262.88,662.15,262.31z"/>
			<path class="st9" d="M654.38,262.48c0-0.78,0-1.57,0.09-2.35c0.06-0.51,0.73-0.51,0.79,0c0.08,0.68,0.09,1.37,0.1,2.06
				c0.01,0.65,0.14,1.36-0.18,1.94c-0.12,0.23-0.48,0.23-0.61,0C654.29,263.61,654.38,263.05,654.38,262.48z"/>
			<path class="st9" d="M659.63,270.72c0-0.64,0-1.29,0.08-1.93c0.06-0.52,0.75-0.53,0.81,0c0.08,0.64,0.09,1.28,0.09,1.93
				c0,0.49,0.15,1.08-0.28,1.42c-0.14,0.11-0.28,0.11-0.42,0C659.49,271.8,659.63,271.21,659.63,270.72z"/>
			<path class="st9" d="M670.03,260.13c0.13-0.65,0.26-1.28,0.43-1.92c0.12-0.46,0.9-0.38,0.85,0.11c-0.07,0.61-0.17,1.22-0.28,1.83
				c-0.1,0.56-0.12,1.14-0.48,1.59c-0.19,0.24-0.57,0.09-0.65-0.17C669.76,261.09,669.93,260.61,670.03,260.13z"/>
			<path class="st9" d="M666.27,254.27c0.11-0.72,0.27-1.44,0.63-2.08c0.21-0.38,0.7-0.1,0.65,0.27c-0.09,0.61-0.24,1.21-0.34,1.82
				c-0.08,0.51,0.02,1.08-0.37,1.47c-0.11,0.11-0.31,0.12-0.41,0C666.06,255.34,666.19,254.79,666.27,254.27z"/>
			<path class="st9" d="M665.31,270.65c0.23-0.49,0.49-0.97,0.8-1.41c0.27-0.37,0.93-0.17,0.79,0.33c-0.14,0.47-0.33,0.91-0.54,1.35
				c-0.16,0.32-0.4,0.84-0.86,0.69C665.07,271.46,665.17,270.96,665.31,270.65z"/>
			<path class="st9" d="M652.58,268.89c0.34,0.61,0.68,1.44,0.72,2.14c0.03,0.45-0.59,0.58-0.82,0.22
				c-0.37-0.59-0.56-1.47-0.64-2.17C651.8,268.7,652.4,268.57,652.58,268.89z"/>
			<path class="st9" d="M658.59,251.92c0.15-0.23,0.52-0.21,0.59,0.07c0.09,0.35,0.06,0.71,0.06,1.07
				c-0.01,0.46,0.03,0.93,0.03,1.39c0.01,0.67-0.92,0.62-1,0C658.17,253.7,658.15,252.59,658.59,251.92z"/>
			<path class="st9" d="M649.58,252.51c0.05-0.36,0.66-0.36,0.72,0c0.1,0.59,0.18,1.17,0.32,1.75c0.12,0.5,0.35,0.94,0.19,1.45
				c-0.04,0.14-0.18,0.19-0.31,0.13C649.47,255.35,649.44,253.46,649.58,252.51z"/>
			<path class="st9" d="M664.72,248.33c0.07-0.49,0.14-1,0.28-1.47c0.14-0.46,0.85-0.39,0.85,0.11c0,0.54-0.1,1.09-0.18,1.62
				c-0.04,0.27-0.37,0.41-0.61,0.35C664.79,248.86,664.68,248.6,664.72,248.33z"/>
			<path class="st9" d="M672.86,249.69c0.33-0.35,0.83,0.09,0.63,0.48c-0.33,0.68-0.6,1.34-0.74,2.09
				c-0.12,0.64-1.04,0.36-0.96-0.26C671.91,251.15,672.26,250.31,672.86,249.69z"/>
			<path class="st9" d="M652.28,249.39c0.1-0.64,0.26-1.26,0.41-1.89c0.11-0.48,0.91-0.39,0.87,0.11c-0.05,0.55-0.08,1.09-0.15,1.63
				c-0.07,0.54-0.03,1.16-0.53,1.47c-0.14,0.09-0.37,0.07-0.47-0.06C652.06,250.25,652.2,249.89,652.28,249.39z"/>
		</g>
	</g>
	<g>
		<path class="st5" d="M685.86,344.35c-0.9,4.59-3.62,10.11-8.22,8.29c-0.14-0.05-0.26-0.11-0.39-0.17
			c1.02-9.14,3.76-26.55,13.36-21.06c4.5,2.57,2.41,10.18,1.9,14.38c-0.17,1.43-0.36,2.86-0.54,4.28
			C687.74,353.19,687.66,347.03,685.86,344.35z"/>
		<path class="st4" d="M675.14,380.04c0.13-7.87,0.84-15.74,1.7-23.56c0.1-0.93,0.23-2.33,0.42-4.01c0.12,0.06,0.25,0.12,0.39,0.17
			c4.6,1.81,7.32-3.7,8.22-8.29c1.8,2.68,1.87,8.84,6.11,5.73c-0.56,4.52-1.13,9.04-1.7,13.56c-1.09,8.55-2.19,17.11-3.29,25.66
			c0,0-4.21,15.92-9.75,7.38C674.37,392.28,675.05,384.99,675.14,380.04z"/>
	</g>
	<g>
		<path class="st5" d="M642.69,346c0.06,4.68-1.49,10.63-6.36,9.79c-0.14-0.02-0.28-0.05-0.41-0.09c-0.87-9.16-1.72-26.76,8.8-23.34
			c4.93,1.6,4.43,9.48,4.78,13.7c0.12,1.43,0.23,2.87,0.35,4.3C646.32,354.27,645,348.25,642.69,346z"/>
		<path class="st4" d="M639.45,383.12c-1.47-7.73-2.38-15.58-3.13-23.41c-0.09-0.93-0.25-2.33-0.41-4.01
			c0.13,0.04,0.27,0.07,0.41,0.09c4.87,0.84,6.42-5.11,6.36-9.79c2.31,2.25,3.63,8.27,7.15,4.37c0.37,4.54,0.74,9.08,1.09,13.62
			c0.67,8.6,1.34,17.19,1.99,25.79c0,0-0.88,16.44-8.05,9.21C641.19,395.26,640.37,387.99,639.45,383.12z"/>
	</g>
</g>
</svg>
