<?xml version="1.0" encoding="utf-8"?>
<!-- Generator: Adobe Illustrator 25.2.1, SVG Export Plug-In . SVG Version: 6.00 Build 0)  -->
<svg version="1.1" id="Layer_1" xmlns="http://www.w3.org/2000/svg" xmlns:xlink="http://www.w3.org/1999/xlink" x="0px" y="0px"
	 viewBox="0 0 1280 560" style="enable-background:new 0 0 1280 560;" xml:space="preserve">
<style type="text/css">
	.st0{opacity:0.1;}
	.st1{fill:#170C66;}
	.st2{fill:#E60B4C;}
	.st3{fill:#7A023D;}
	.st4{fill:#802160;}
	.st5{fill:#F12863;}
	.st6{fill:#FABAAC;}
	.st7{fill:#682698;}
	.st8{fill:#752BAB;}
	.st9{fill:#F180A3;}
	.st10{fill:#E6AFA3;}
	.st11{fill:#712994;}
	.st12{clip-path:url(#SVGID_2_);}
	.st13{fill:url(#SVGID_3_);}
	.st14{opacity:0.1;clip-path:url(#SVGID_5_);}
	.st15{fill:url(#SVGID_6_);}
	.st16{fill:url(#SVGID_7_);}
	.st17{fill:url(#SVGID_8_);}
	.st18{fill:url(#SVGID_9_);}
	.st19{clip-path:url(#SVGID_11_);}
	.st20{fill:url(#SVGID_12_);}
	.st21{opacity:0.1;clip-path:url(#SVGID_14_);}
	.st22{fill:url(#SVGID_15_);}
	.st23{fill:url(#SVGID_16_);}
	.st24{fill:url(#SVGID_17_);}
	.st25{fill:url(#SVGID_18_);}
	.st26{display:none;fill:url(#SVGID_19_);}
	.st27{clip-path:url(#SVGID_21_);}
	.st28{fill:url(#SVGID_22_);}
	.st29{opacity:0.1;clip-path:url(#SVGID_24_);}
	.st30{fill:url(#SVGID_25_);}
	.st31{fill:url(#SVGID_26_);}
	.st32{fill:url(#SVGID_27_);}
	.st33{fill:url(#SVGID_28_);}
	.st34{fill:#E40F4C;}
	.st35{fill:#E5ADA3;}
</style>
<g class="st0">
	<path class="st1" d="M228.81,301.43c0,8.14-1.32,14.97-3.96,20.46c-2.65,5.5-6.11,9.93-10.39,13.29
		c-4.29,3.36-9.11,5.79-14.46,7.29c-5.36,1.5-10.75,2.25-16.18,2.25h-50.36V193h45.43c4.71,0,9.71,0.5,15,1.5
		c5.28,1,10.1,2.89,14.46,5.68c4.36,2.79,8,6.75,10.93,11.89c2.93,5.14,4.39,11.79,4.39,19.93c0,9-1.82,16.18-5.46,21.53
		c-3.64,5.36-8.11,9.25-13.39,11.68v0.43c2.86,0.72,5.71,2,8.57,3.86c2.86,1.86,5.43,4.25,7.71,7.18c2.28,2.93,4.14,6.46,5.57,10.61
		C228.09,291.43,228.81,296.14,228.81,301.43z M193.45,237.46c0-5.89-1.64-10.06-4.93-12.51c-3.29-2.44-7.14-3.67-11.57-3.67h-11.57
		v33h11.79c4.14,0,7.89-1.29,11.25-3.88C191.77,247.82,193.45,243.5,193.45,237.46z M196.24,298.32c0-3.45-0.54-6.36-1.61-8.73
		s-2.5-4.31-4.29-5.82c-1.79-1.51-3.79-2.62-6-3.34c-2.22-0.72-4.39-1.08-6.54-1.08h-12.43v37.07h12.86c5,0,9.25-1.51,12.75-4.53
		C194.49,308.88,196.24,304.36,196.24,298.32z"/>
	<path class="st1" d="M317.3,344.71l-6.21-27.64h-34.07l-6.21,27.64h-34.29L273.38,193h43.07l36.64,151.71H317.3z M294.59,226h-0.86
		l-12.86,64.5h25.93L294.59,226z"/>
	<path class="st1" d="M443.51,342.89c-6.72,3.93-15.29,5.89-25.71,5.89c-8.86,0-16.89-1.97-24.11-5.89
		c-7.21-3.93-13.39-9.43-18.54-16.5c-5.14-7.07-9.14-15.5-12-25.29c-2.86-9.78-4.29-20.53-4.29-32.25c0-11.86,1.43-22.71,4.29-32.57
		c2.86-9.86,6.86-18.28,12-25.29c5.14-7,11.32-12.43,18.54-16.29c7.21-3.86,15.25-5.79,24.11-5.79c10.14,0,18.61,1.82,25.39,5.46
		c6.78,3.64,12.25,8.18,16.39,13.61l-18.43,24.86c-2.57-3.43-5.46-6.14-8.68-8.14c-3.21-2-7.25-3-12.11-3
		c-4.57,0-8.54,1.22-11.89,3.64c-3.36,2.43-6.21,5.75-8.57,9.96c-2.36,4.21-4.11,9.21-5.25,15c-1.14,5.79-1.71,11.97-1.71,18.54
		c0,6.57,0.57,12.72,1.71,18.43c1.14,5.72,2.89,10.71,5.25,15c2.36,4.29,5.25,7.64,8.68,10.07c3.43,2.43,7.43,3.64,12,3.64
		c4.57,0,8.57-1.14,12-3.43c3.43-2.28,6.14-5,8.14-8.14l19.07,23.79C455.65,334.07,450.22,338.96,443.51,342.89z"/>
	<path class="st1" d="M542.29,344.71l-32.36-70.5h-0.64v70.5h-34.5V193h34.5v63.21h0.64L541.22,193h38.36l-39,69.43l41.36,82.28
		H542.29z"/>
	<path class="st1" d="M700.43,268.43c0,12-1.36,22.96-4.07,32.89c-2.71,9.93-6.57,18.39-11.57,25.39c-5,7-11.11,12.43-18.32,16.29
		c-7.21,3.86-15.32,5.79-24.32,5.79c-9,0-17.11-1.93-24.32-5.79c-7.22-3.86-13.32-9.28-18.32-16.29c-5-7-8.86-15.46-11.57-25.39
		c-2.72-9.93-4.07-20.89-4.07-32.89s1.32-22.89,3.96-32.68c2.64-9.78,6.46-18.14,11.46-25.07c5-6.93,11.11-12.28,18.32-16.07
		c7.21-3.78,15.39-5.68,24.54-5.68c9,0,17.11,1.89,24.32,5.68c7.21,3.79,13.32,9.14,18.32,16.07c5,6.93,8.86,15.29,11.57,25.07
		C699.07,245.54,700.43,256.43,700.43,268.43z M665.29,268.43c0-6.57-0.5-12.68-1.5-18.32c-1-5.64-2.46-10.53-4.39-14.68
		c-1.93-4.14-4.32-7.39-7.18-9.75c-2.86-2.36-6.21-3.54-10.07-3.54c-3.86,0-7.25,1.18-10.18,3.54c-2.93,2.36-5.36,5.61-7.29,9.75
		c-1.93,4.15-3.36,9.04-4.29,14.68c-0.93,5.64-1.39,11.75-1.39,18.32c0,6.57,0.46,12.72,1.39,18.43c0.93,5.72,2.36,10.64,4.29,14.79
		c1.93,4.15,4.36,7.43,7.29,9.86c2.93,2.43,6.32,3.64,10.18,3.64c3.86,0,7.21-1.21,10.07-3.64c2.86-2.43,5.25-5.71,7.18-9.86
		c1.93-4.14,3.39-9.07,4.39-14.79C664.78,281.14,665.29,275,665.29,268.43z"/>
	<path class="st1" d="M755.71,223.86v31.07h36.21v29.36h-36v60.43h-34.71V193h73.93v30.86H755.71z"/>
	<path class="st1" d="M848.28,223.86v31.07h36.21v29.36h-36v60.43h-34.71V193h73.93v30.86H848.28z"/>
	<path class="st1" d="M906.35,344.71V193h34.5v151.71H906.35z"/>
	<path class="st1" d="M1046.27,342.89c-6.72,3.93-15.29,5.89-25.71,5.89c-8.86,0-16.89-1.97-24.11-5.89
		c-7.21-3.93-13.39-9.43-18.54-16.5c-5.14-7.07-9.14-15.5-12-25.29c-2.86-9.78-4.29-20.53-4.29-32.25c0-11.86,1.43-22.71,4.29-32.57
		c2.86-9.86,6.86-18.28,12-25.29c5.14-7,11.32-12.43,18.54-16.29c7.21-3.86,15.25-5.79,24.11-5.79c10.14,0,18.61,1.82,25.39,5.46
		c6.78,3.64,12.25,8.18,16.39,13.61l-18.43,24.86c-2.57-3.43-5.46-6.14-8.68-8.14c-3.21-2-7.25-3-12.11-3
		c-4.57,0-8.54,1.22-11.89,3.64c-3.36,2.43-6.21,5.75-8.57,9.96c-2.36,4.21-4.11,9.21-5.25,15c-1.15,5.79-1.71,11.97-1.71,18.54
		c0,6.57,0.57,12.72,1.71,18.43c1.14,5.72,2.89,10.71,5.25,15c2.36,4.29,5.25,7.64,8.68,10.07c3.43,2.43,7.43,3.64,12,3.64
		c4.57,0,8.57-1.14,12-3.43c3.43-2.28,6.14-5,8.14-8.14l19.07,23.79C1058.41,334.07,1052.98,338.96,1046.27,342.89z"/>
	<path class="st1" d="M1077.55,344.71V193h73.28v30.21h-40.5V253h37.28v28.29h-37.28v32.57h43.07v30.86H1077.55z"/>
</g>
<g>
	<g>
		<path class="st2" d="M679.07,345.19c-13.45-0.09-26.89-3.1-39.04-8.84c-18.34-8.67-33.01-33.97-24.02-54.33
			c5.99-13.57,19.61-14.19,34.93-11.05c15.01,3.07,28.23,9.6,42.52,14.53c12.14,4.19,20.73,12.41,23.41,25.79
			c4.05,20.24-5.35,30.18-23.82,32.92C688.42,344.9,683.75,345.22,679.07,345.19z"/>
		<path class="st3" d="M613.49,291.54c-1.93,18.13,10.98,37.45,26.54,44.81c12.15,5.74,25.6,8.76,39.04,8.84
			c4.67,0.03,9.35-0.29,13.97-0.98c18.47-2.74,27.87-12.68,23.82-32.92c-1.02-5.08-2.89-9.42-5.49-13.07
			c-6.97,3.5-14.47,6.09-22.6,7.54C662.25,310.77,635.72,305.85,613.49,291.54z"/>
		<path class="st2" d="M693.45,285.5c-14.29-4.94-27.51-11.46-42.52-14.53c-15.32-3.13-28.94-2.52-34.93,11.05
			c-1.36,3.09-2.17,6.29-2.52,9.52c22.23,14.31,48.76,19.23,75.28,14.21c8.13-1.45,15.63-4.04,22.6-7.54
			C707.14,292.25,700.98,288.1,693.45,285.5z"/>
		<path class="st2" d="M611.66,231.45c-0.93,0.87-1.91,1.69-2.92,2.45c-3.32,2.5-7.06,4.42-11.03,5.61
			c-1.57,0.48-3.18,0.84-4.82,1.09c-9.57-9.54-12.41-25.18-6.8-37.47C599.83,206.06,610.45,217.44,611.66,231.45z"/>
		<path class="st4" d="M608.73,233.9c-3.32,2.5-7.06,4.42-11.03,5.61c-0.25-0.19-0.49-0.41-0.71-0.66
			c-5.4-6.17-7.44-15.44-5.16-23.5C599.85,218.55,605.97,225.36,608.73,233.9z"/>
		<path class="st2" d="M653.38,231.45c0.93,0.87,1.91,1.69,2.92,2.45c3.32,2.5,7.06,4.42,11.03,5.61c1.57,0.48,3.18,0.84,4.82,1.09
			c9.57-9.54,12.41-25.18,6.8-37.47C665.2,206.06,654.59,217.44,653.38,231.45z"/>
		<path class="st4" d="M656.3,233.9c3.32,2.5,7.06,4.42,11.03,5.61c0.25-0.19,0.49-0.41,0.71-0.66c5.4-6.17,7.44-15.44,5.16-23.5
			C665.18,218.55,659.06,225.36,656.3,233.9z"/>
		<path class="st5" d="M690.46,268.23c-36.14,18.49-81,18.84-117.42,0.91c7.52-26.05,30.62-50.1,57.72-49.99
			C657.86,219.27,683.16,242.13,690.46,268.23z"/>
		<path class="st6" d="M690.46,268.23c-36.14,18.49-81,18.84-117.42,0.91c0,0,40.64-51.73,56.18,8.09l6.17-0.86
			C635.38,276.38,643.46,210.74,690.46,268.23z"/>
		<path class="st7" d="M640.44,277.05c-1.32-2.05-6.89-1.63-8.69-1.54c-1.67,0.09-6.27,0.25-7.35,1.75
			c-2.55,3.57,4.81,7.5,7.42,7.45c2.01-0.04,3.95-0.92,5.49-2.18c1.01-0.83,3.65-3.38,3.37-4.85
			C640.64,277.44,640.56,277.23,640.44,277.05z"/>
		<path class="st8" d="M635.9,277.88c-0.68-0.98-1.71-0.93-2.82-1.01c-1.17-0.09-2.68-0.18-3.66,0.57c-0.45,0.34-0.68,1.22,0,1.51
			c0.94,0.4,1.85,0.3,2.85,0.31c1.08,0.02,2.33,0.55,3.28-0.08C635.96,278.91,636.21,278.32,635.9,277.88z"/>
		<path class="st4" d="M611.77,258.9c-1.07-1.41-2.76-1.41-3.83,0c-0.76,1-0.61,2.86-0.58,4.09c0.02,0.82,0.45,1.79,1.24,2.16
			c0.93,0.43,1.59,0.43,2.52,0c0.79-0.37,1.22-1.34,1.24-2.16C612.38,261.76,612.53,259.9,611.77,258.9z"/>
		<path class="st4" d="M655.3,258.9c-1.07-1.41-2.76-1.41-3.83,0c-0.76,1-0.61,2.86-0.58,4.09c0.02,0.82,0.45,1.79,1.24,2.16
			c0.93,0.43,1.59,0.43,2.52,0c0.79-0.37,1.22-1.34,1.24-2.16C655.91,261.76,656.06,259.9,655.3,258.9z"/>
		<path class="st9" d="M628.82,247.7c-0.09-0.68-0.17-1.37-0.31-2.05c-0.11-0.53-0.97-0.41-0.94,0.13c0.04,0.73,0.14,1.46,0.23,2.19
			c0.07,0.56,0.04,1.2,0.5,1.58c0.16,0.13,0.35,0.11,0.47-0.06C629.13,248.97,628.9,248.29,628.82,247.7z"/>
		<path class="st9" d="M636.81,247.84c0-0.81-0.01-1.62-0.1-2.42c-0.06-0.52-0.75-0.52-0.81,0c-0.08,0.7-0.09,1.41-0.1,2.12
			c-0.01,0.67-0.13,1.4,0.19,2c0.13,0.23,0.49,0.23,0.62,0C636.91,249,636.82,248.43,636.81,247.84z"/>
		<path class="st9" d="M631.45,256.33c0-0.66-0.01-1.32-0.09-1.98c-0.06-0.54-0.77-0.54-0.84,0c-0.08,0.66-0.09,1.32-0.09,1.98
			c0,0.51-0.15,1.11,0.29,1.45c0.14,0.11,0.29,0.11,0.43,0C631.6,257.44,631.46,256.84,631.45,256.33z"/>
		<path class="st9" d="M620.71,245.49c-0.14-0.66-0.27-1.32-0.46-1.97c-0.13-0.47-0.93-0.39-0.87,0.12
			c0.07,0.63,0.18,1.25,0.29,1.88c0.11,0.58,0.13,1.17,0.5,1.64c0.2,0.24,0.58,0.09,0.66-0.18
			C620.99,246.48,620.81,245.99,620.71,245.49z"/>
		<path class="st9" d="M624.55,239.45c-0.11-0.74-0.28-1.48-0.66-2.13c-0.22-0.39-0.72-0.1-0.67,0.28c0.09,0.63,0.25,1.25,0.36,1.87
			c0.09,0.52-0.01,1.12,0.38,1.51c0.11,0.11,0.32,0.12,0.43,0C624.77,240.55,624.63,239.99,624.55,239.45z"/>
		<path class="st9" d="M625.61,256.29c-0.23-0.51-0.5-1-0.83-1.45c-0.28-0.38-0.96-0.17-0.81,0.34c0.14,0.48,0.34,0.94,0.57,1.38
			c0.16,0.33,0.42,0.87,0.89,0.7C625.86,257.12,625.75,256.61,625.61,256.29z"/>
		<path class="st9" d="M638.7,254.43c-0.35,0.63-0.69,1.48-0.73,2.21c-0.03,0.47,0.61,0.59,0.84,0.23c0.38-0.61,0.57-1.52,0.64-2.23
			C639.49,254.22,638.88,254.09,638.7,254.43z"/>
		<path class="st9" d="M632.43,237c-0.15-0.23-0.53-0.21-0.61,0.08c-0.1,0.36-0.06,0.73-0.05,1.1c0.01,0.48-0.02,0.95-0.03,1.43
			c-0.01,0.68,0.95,0.64,1.03,0C632.88,238.83,632.89,237.69,632.43,237z"/>
		<path class="st9" d="M641.7,237.57c-0.06-0.37-0.68-0.37-0.74,0c-0.1,0.6-0.18,1.2-0.32,1.8c-0.12,0.51-0.35,0.97-0.19,1.49
			c0.04,0.14,0.19,0.19,0.32,0.13C641.83,240.49,641.85,238.54,641.7,237.57z"/>
		<path class="st9" d="M626.11,233.34c-0.08-0.5-0.14-1.03-0.29-1.51c-0.15-0.48-0.88-0.4-0.88,0.12c0,0.55,0.11,1.12,0.19,1.66
			c0.04,0.27,0.38,0.42,0.63,0.35C626.05,233.88,626.15,233.61,626.11,233.34z"/>
		<path class="st9" d="M617.76,234.77c-0.34-0.35-0.85,0.09-0.65,0.5c0.34,0.7,0.62,1.38,0.77,2.14c0.13,0.66,1.07,0.36,0.98-0.27
			C618.74,236.27,618.37,235.41,617.76,234.77z"/>
		<path class="st9" d="M638.92,234.37c-0.11-0.66-0.28-1.29-0.43-1.94c-0.12-0.49-0.94-0.4-0.89,0.12c0.05,0.56,0.09,1.12,0.16,1.68
			c0.08,0.55,0.04,1.19,0.55,1.51c0.14,0.09,0.38,0.07,0.49-0.06C639.14,235.26,639,234.89,638.92,234.37z"/>
	</g>
	<g>
		<path class="st5" d="M650.59,308.95c12.19,0.3,23.81,8.86,35.45,11.85c5.41,1.39,12.2,3.15,17.53,0.48
			c2.84-1.42,13.2-12.66,11.64-14.4c9.03,10.12,9.32,30.87,4.47,42.73c-10.23,25.04-33.77,27.93-56.43,20.18
			c-13.6-4.65-33.07-16.02-47.76-12.14c-12.66,3.35-27.39,16.24-36.02,25.44c-9.84-10.54-9.56-28-3.47-41.07
			c5.32-11.44,15.45-20.08,26.95-25.4c1.65-0.76,3.32-1.46,5.02-2.08C621.49,309.55,636.17,308.59,650.59,308.95z"/>
		<path class="st2" d="M659.52,352.9c20.55,3.73,44.18,3.1,61.88-8.74c-0.47,1.95-1.04,3.79-1.72,5.45
			c-10.23,25.04-33.77,27.93-56.43,20.18c-13.6-4.65-33.07-16.02-47.76-12.14c-12.66,3.35-27.39,16.24-36.02,25.44
			c-9.84-10.54-9.56-28-3.47-41.07c3.99-8.57,10.67-15.56,18.61-20.77C612.21,337.57,635.35,348.51,659.52,352.9z"/>
		<path class="st5" d="M607.96,314.54c13.53-4.98,28.21-5.94,42.63-5.59c12.19,0.3,23.81,8.86,35.45,11.85
			c5.41,1.39,12.2,3.15,17.53,0.48c2.84-1.42,13.2-12.66,11.64-14.4c7.76,8.71,9.06,25.27,6.18,37.29
			c-17.7,11.84-41.33,12.47-61.88,8.74c-24.17-4.39-47.31-15.33-64.93-31.65c2.66-1.75,5.46-3.29,8.35-4.63
			C604.59,315.86,606.26,315.16,607.96,314.54z"/>
		<path class="st10" d="M575.99,342.02c5.32-11.44,15.45-20.08,26.95-25.4c2.22,0.22,4.43,0.59,6.59,1.11
			c-8.21,4.52-14.13,12.98-15.59,22.24c6.07-2.55,12.98-3.03,19.34-1.35c-6.56,2.53-11.51,8.85-12.39,15.83
			c7.27-2.22,15.43-1.31,22.05,2.41c-16.51,4.6-31.75,13.73-43.48,26.23C569.62,372.55,569.91,355.08,575.99,342.02z"/>
		<path class="st9" d="M668.07,319.55c0.31,0.71,1.1,1,1.74,1.36c0.71,0.4,1.44,0.78,2.2,1.07c0.45,0.17,0.66-0.44,0.34-0.7
			c-0.67-0.56-1.41-1.03-2.15-1.48c-0.62-0.38-1.15-0.79-1.89-0.73C668.07,319.08,667.99,319.37,668.07,319.55z"/>
		<path class="st9" d="M655.8,316.42c0.55,0.46,1.17,0.43,1.84,0.57c0.82,0.17,1.61,0.41,2.39,0.72c0.57,0.23,1.02-0.69,0.47-0.97
			c-0.79-0.4-1.6-0.73-2.46-0.95c-0.75-0.19-1.52-0.39-2.21,0.04C655.6,315.98,655.59,316.26,655.8,316.42z"/>
		<path class="st9" d="M643.44,315.06c0.98,0.39,2.11,0.35,3.15,0.45c1.19,0.11,2.37,0.19,3.56,0.23c0.59,0.02,0.6-0.8,0.05-0.89
			c-1.18-0.19-2.36-0.34-3.55-0.46c-1.05-0.11-2.13-0.35-3.17-0.15C643.04,314.32,643.06,314.91,643.44,315.06z"/>
		<path class="st9" d="M633.2,314.51c0.34,0.42,0.84,0.26,1.32,0.21c0.72-0.08,1.44-0.17,2.15-0.27c0.57-0.08,0.49-1.06-0.08-1.01
			c-0.61,0.05-1.22,0.1-1.82,0.16c-0.54,0.06-1.32-0.04-1.6,0.51C633.1,314.24,633.1,314.38,633.2,314.51z"/>
		<path class="st9" d="M661.33,321.06c0.26,0.62,1.11,0.69,1.69,0.89c0.77,0.26,1.49,0.66,2.26,0.93c0.35,0.12,0.65-0.33,0.4-0.61
			c-0.56-0.6-1.29-0.99-2.03-1.34c-0.64-0.31-1.62-0.81-2.24-0.28C661.28,320.76,661.27,320.92,661.33,321.06z"/>
		<path class="st9" d="M650.88,319.78c0.36,0.29,0.93,0.32,1.37,0.46c0.48,0.15,0.94,0.37,1.4,0.57c0.51,0.22,0.78-0.52,0.4-0.82
			c-0.44-0.34-0.94-0.59-1.45-0.79c-0.46-0.19-1.07-0.44-1.56-0.28C650.63,319.05,650.54,319.51,650.88,319.78z"/>
		<path class="st9" d="M637.36,317.91c0.45,0.27,0.94,0.17,1.46,0.19c0.72,0.02,1.45,0.12,2.15,0.28c0.55,0.13,0.84-0.66,0.28-0.85
			c-0.7-0.23-1.39-0.39-2.12-0.47c-0.61-0.06-1.31-0.16-1.81,0.25C637.12,317.46,637.15,317.79,637.36,317.91z"/>
		<path class="st9" d="M657.69,323.1c0.28,0.02,0.54-0.01,0.83,0.06c0.33,0.08,0.56,0.3,0.92,0.29c0.21,0,0.43-0.15,0.42-0.38
			c-0.01-0.61-0.44-0.87-0.95-1.1c-0.44-0.2-1.02-0.21-1.47-0.01C656.88,322.21,657.12,323.06,657.69,323.1z"/>
		<path class="st9" d="M644.53,321.26c0.37,0.15,0.81,0.12,1.21,0.12c0.42,0,0.84,0.03,1.26,0.02c0.64-0.03,0.68-0.9,0.05-0.99
			c-0.42-0.06-0.84-0.08-1.25-0.11c-0.4-0.04-0.83-0.11-1.21,0C644.1,320.44,644.06,321.08,644.53,321.26z"/>
	</g>
</g>
</svg>
